<svg width="82" height="20" viewBox="0 0 82 20" fill="none" xmlns="http://www.w3.org/2000/svg">
<path d="M0.523438 18.8828V1.82031H6.5C8.57031 1.82031 10.1406 2.21875 11.2109 3.01562C12.2812 3.80469 12.8164 4.96484 12.8164 6.49609C12.8164 7.33203 12.6016 8.07031 12.1719 8.71094C11.7422 9.34375 11.1445 9.80859 10.3789 10.1055C11.2539 10.3242 11.9414 10.7656 12.4414 11.4297C12.9492 12.0938 13.2031 12.9062 13.2031 13.8672C13.2031 15.5078 12.6797 16.75 11.6328 17.5938C10.5859 18.4375 9.09375 18.8672 7.15625 18.8828H0.523438ZM4.03906 11.4531V16.0586H7.05078C7.87891 16.0586 8.52344 15.8633 8.98438 15.4727C9.45312 15.0742 9.6875 14.5273 9.6875 13.832C9.6875 12.2695 8.87891 11.4766 7.26172 11.4531H4.03906ZM4.03906 8.96875H6.64062C8.41406 8.9375 9.30078 8.23047 9.30078 6.84766C9.30078 6.07422 9.07422 5.51953 8.62109 5.18359C8.17578 4.83984 7.46875 4.66797 6.5 4.66797H4.03906V8.96875Z" fill="black"/>
<path d="M22.9766 18.8828C22.8203 18.5781 22.707 18.1992 22.6367 17.7461C21.8164 18.6602 20.75 19.1172 19.4375 19.1172C18.1953 19.1172 17.1641 18.7578 16.3438 18.0391C15.5312 17.3203 15.125 16.4141 15.125 15.3203C15.125 13.9766 15.6211 12.9453 16.6133 12.2266C17.6133 11.5078 19.0547 11.1445 20.9375 11.1367H22.4961V10.4102C22.4961 9.82422 22.3438 9.35547 22.0391 9.00391C21.7422 8.65234 21.2695 8.47656 20.6211 8.47656C20.0508 8.47656 19.6016 8.61328 19.2734 8.88672C18.9531 9.16016 18.793 9.53516 18.793 10.0117H15.4062C15.4062 9.27734 15.6328 8.59766 16.0859 7.97266C16.5391 7.34766 17.1797 6.85938 18.0078 6.50781C18.8359 6.14844 19.7656 5.96875 20.7969 5.96875C22.3594 5.96875 23.5977 6.36328 24.5117 7.15234C25.4336 7.93359 25.8945 9.03516 25.8945 10.457V15.9531C25.9023 17.1562 26.0703 18.0664 26.3984 18.6836V18.8828H22.9766ZM20.1758 16.5273C20.6758 16.5273 21.1367 16.418 21.5586 16.1992C21.9805 15.9727 22.293 15.6719 22.4961 15.2969V13.1172H21.2305C19.5352 13.1172 18.6328 13.7031 18.5234 14.875L18.5117 15.0742C18.5117 15.4961 18.6602 15.8438 18.957 16.1172C19.2539 16.3906 19.6602 16.5273 20.1758 16.5273Z" fill="black"/>
<path d="M35.6211 9.37891C35.1602 9.31641 34.7539 9.28516 34.4023 9.28516C33.1211 9.28516 32.2812 9.71875 31.8828 10.5859V18.8828H28.4961V6.20312H31.6953L31.7891 7.71484C32.4688 6.55078 33.4102 5.96875 34.6133 5.96875C34.9883 5.96875 35.3398 6.01953 35.668 6.12109L35.6211 9.37891Z" fill="black"/>
<path d="M40.8359 18.8828H37.4375V0.882812H40.8359V18.8828Z" fill="black"/>
<path d="M43.1094 12.4258C43.1094 11.168 43.3516 10.0469 43.8359 9.0625C44.3203 8.07812 45.0156 7.31641 45.9219 6.77734C46.8359 6.23828 47.8945 5.96875 49.0977 5.96875C50.8086 5.96875 52.2031 6.49219 53.2812 7.53906C54.3672 8.58594 54.9727 10.0078 55.0977 11.8047L55.1211 12.6719C55.1211 14.6172 54.5781 16.1797 53.4922 17.3594C52.4062 18.5312 50.9492 19.1172 49.1211 19.1172C47.293 19.1172 45.832 18.5312 44.7383 17.3594C43.6523 16.1875 43.1094 14.5938 43.1094 12.5781V12.4258ZM46.4961 12.6719C46.4961 13.875 46.7227 14.7969 47.1758 15.4375C47.6289 16.0703 48.2773 16.3867 49.1211 16.3867C49.9414 16.3867 50.582 16.0742 51.043 15.4492C51.5039 14.8164 51.7344 13.8086 51.7344 12.4258C51.7344 11.2461 51.5039 10.332 51.043 9.68359C50.582 9.03516 49.9336 8.71094 49.0977 8.71094C48.2695 8.71094 47.6289 9.03516 47.1758 9.68359C46.7227 10.3242 46.4961 11.3203 46.4961 12.6719Z" fill="black"/>
<path d="M56.6797 12.4258C56.6797 11.168 56.9219 10.0469 57.4062 9.0625C57.8906 8.07812 58.5859 7.31641 59.4922 6.77734C60.4062 6.23828 61.4648 5.96875 62.668 5.96875C64.3789 5.96875 65.7734 6.49219 66.8516 7.53906C67.9375 8.58594 68.543 10.0078 68.668 11.8047L68.6914 12.6719C68.6914 14.6172 68.1484 16.1797 67.0625 17.3594C65.9766 18.5312 64.5195 19.1172 62.6914 19.1172C60.8633 19.1172 59.4023 18.5312 58.3086 17.3594C57.2227 16.1875 56.6797 14.5938 56.6797 12.5781V12.4258ZM60.0664 12.6719C60.0664 13.875 60.293 14.7969 60.7461 15.4375C61.1992 16.0703 61.8477 16.3867 62.6914 16.3867C63.5117 16.3867 64.1523 16.0742 64.6133 15.4492C65.0742 14.8164 65.3047 13.8086 65.3047 12.4258C65.3047 11.2461 65.0742 10.332 64.6133 9.68359C64.1523 9.03516 63.5039 8.71094 62.668 8.71094C61.8398 8.71094 61.1992 9.03516 60.7461 9.68359C60.293 10.3242 60.0664 11.3203 60.0664 12.6719Z" fill="black"/>
<path d="M73.8945 6.20312L74 7.66797C74.9062 6.53516 76.1211 5.96875 77.6445 5.96875C78.9883 5.96875 79.9883 6.36328 80.6445 7.15234C81.3008 7.94141 81.6367 9.12109 81.6523 10.6914V18.8828H78.2656V10.7734C78.2656 10.0547 78.1094 9.53516 77.7969 9.21484C77.4844 8.88672 76.9648 8.72266 76.2383 8.72266C75.2852 8.72266 74.5703 9.12891 74.0938 9.94141V18.8828H70.707V6.20312H73.8945Z" fill="black"/>
</svg>
